<svg width="512" height="512" viewBox="0 0 512 512" fill="none" xmlns="http://www.w3.org/2000/svg">
  <rect width="512" height="512" rx="128" fill="url(#bg)"/>
  <circle cx="396" cy="128" r="88" fill="url(#glow)" opacity="0.72"/>
  <path d="M132 176C132 156.118 148.118 140 168 140H344C363.882 140 380 156.118 380 176V214C380 233.882 363.882 250 344 250H168C148.118 250 132 233.882 132 214V176Z" fill="url(#pot)" stroke="#FFF4D1" stroke-width="16"/>
  <path d="M166 250H346L324 344C319.78 362.033 303.702 374.811 285.182 374.811H226.818C208.298 374.811 192.22 362.033 188 344L166 250Z" fill="#FFF4D1" fill-opacity="0.16" stroke="#FFF4D1" stroke-width="16" stroke-linejoin="round"/>
  <path d="M150 318H362" stroke="#FFF4D1" stroke-width="18" stroke-linecap="round"/>
  <path d="M106 204H132" stroke="#FFF4D1" stroke-width="16" stroke-linecap="round"/>
  <path d="M380 204H406" stroke="#FFF4D1" stroke-width="16" stroke-linecap="round"/>
  <path d="M244 110C244 92.3269 258.327 78 276 78H286" stroke="#FFEFB6" stroke-width="16" stroke-linecap="round"/>
  <path d="M196 118C196 104.745 206.745 94 220 94H226" stroke="#FFEFB6" stroke-width="14" stroke-linecap="round"/>
  <path d="M294 176L246 258H292L262 340L344 228H294L326 176H294Z" fill="url(#bolt)" stroke="#5D2104" stroke-width="12" stroke-linejoin="round"/>
  <defs>
    <linearGradient id="bg" x1="64" y1="52" x2="446" y2="472" gradientUnits="userSpaceOnUse">
      <stop stop-color="#FF8C42"/>
      <stop offset="0.48" stop-color="#D94C2B"/>
      <stop offset="1" stop-color="#4C180A"/>
    </linearGradient>
    <radialGradient id="glow" cx="0" cy="0" r="1" gradientUnits="userSpaceOnUse" gradientTransform="translate(396 128) rotate(90) scale(88)">
      <stop stop-color="#FFF7CC"/>
      <stop offset="1" stop-color="#FFF7CC" stop-opacity="0"/>
    </radialGradient>
    <linearGradient id="pot" x1="154" y1="148" x2="358" y2="382" gradientUnits="userSpaceOnUse">
      <stop stop-color="#FFF3C4" stop-opacity="0.2"/>
      <stop offset="1" stop-color="#FFEDB1" stop-opacity="0.08"/>
    </linearGradient>
    <linearGradient id="bolt" x1="246" y1="176" x2="344" y2="340" gradientUnits="userSpaceOnUse">
      <stop stop-color="#FFE76A"/>
      <stop offset="1" stop-color="#FFB118"/>
    </linearGradient>
  </defs>
</svg>
